<svg xmlns="http://www.w3.org/2000/svg" version="1.1" xmlns:xlink="http://www.w3.org/1999/xlink" xmlns:svgjs="http://svgjs.com/svgjs" width="4096" height="2304" preserveAspectRatio="none" viewBox="0 0 4096 2304"><g mask="url(&quot;#SvgjsMask1022&quot;)" fill="none"><rect width="4096" height="2304" x="0" y="0" fill="rgba(67, 216, 243, 1)"></rect><path d="M0,1354.423C251.533,1357.049,357.478,1020.722,560.749,872.543C747.487,736.416,1016.868,715.747,1142.338,521.688C1272.903,319.749,1328.071,45.524,1240.184,-178.312C1154.453,-396.655,844.954,-422.092,699.51,-606.129C542.757,-804.476,587.474,-1138.535,374.131,-1274.173C157.728,-1411.757,-134.234,-1367.301,-379.385,-1292.066C-622.887,-1217.337,-831.703,-1057.229,-988.032,-856.134C-1139.251,-661.613,-1204.67,-422.072,-1244.701,-178.961C-1285.433,68.409,-1359.616,348.759,-1220.805,557.523C-1082.678,765.259,-762.173,724.549,-553.274,860.911C-342.052,998.789,-252.226,1351.789,0,1354.423" fill="#0ebbdb"></path><path d="M4096 3398.541C4297.496 3398.848 4435.202 3204.432 4606.855 3098.906 4782.832 2990.7219999999998 5029.034 2957.172 5117.553 2770.5280000000002 5206.111 2583.804 5056.9310000000005 2373.505 5048.8279999999995 2167.004 5039.438 1927.686 5188.325 1669.327 5066.259 1463.266 4943.605 1256.214 4672.358 1194.454 4438.666 1136.988 4212.6 1081.397 3955.724 1023.749 3754.418 1140.678 3557.526 1255.043 3576.217 1552.319 3427.212 1724.492 3278.355 1896.4940000000001 2966.1859999999997 1914.943 2896.8450000000003 2131.588 2828.401 2345.429 2965.045 2578.169 3095.482 2760.921 3213.069 2925.669 3415.455 2988.568 3586.146 3097.348 3756.048 3205.625 3894.529 3398.234 4096 3398.541" fill="#8ce7f8"></path></g><defs><mask id="SvgjsMask1022"><rect width="4096" height="2304" fill="#ffffff"></rect></mask></defs></svg>