<?xml version="1.0" encoding="utf-8"?>
<!-- Generator: Adobe Illustrator 16.0.0, SVG Export Plug-In . SVG Version: 6.00 Build 0)  -->
<!DOCTYPE svg PUBLIC "-//W3C//DTD SVG 1.1//EN" "http://www.w3.org/Graphics/SVG/1.1/DTD/svg11.dtd">
<svg version="1.1" id="Layer_1" xmlns="http://www.w3.org/2000/svg" xmlns:xlink="http://www.w3.org/1999/xlink" x="0px" y="0px"
	 width="30px" height="30px" viewBox="0 0 100 100" enable-background="new 0 0 100 100" xml:space="preserve">
<linearGradient id="SVGID_1_" gradientUnits="userSpaceOnUse" x1="-462.5503" y1="-40.8462" x2="-440.6968" y2="-40.8462">
	<stop  offset="0" style="stop-color:#3D434F"/>
	<stop  offset="1" style="stop-color:#E5204F"/>
</linearGradient>
<path fill="url(#SVGID_1_)" d="M-451.624-51.773c-6.024,0-10.927,4.902-10.927,10.927c0,6.025,4.902,10.927,10.927,10.927
	c6.025,0,10.927-4.901,10.927-10.927C-440.697-46.871-445.598-51.773-451.624-51.773z M-451.624-33.419
	c-4.095,0-7.427-3.331-7.427-7.427c0-4.095,3.332-7.427,7.427-7.427c4.096,0,7.427,3.332,7.427,7.427
	C-444.197-36.75-447.528-33.419-451.624-33.419z"/>
<linearGradient id="SVGID_2_" gradientUnits="userSpaceOnUse" x1="-418.3354" y1="-40.8462" x2="-396.4819" y2="-40.8462">
	<stop  offset="0" style="stop-color:#3D434F"/>
	<stop  offset="1" style="stop-color:#E5204F"/>
</linearGradient>
<path fill="url(#SVGID_2_)" d="M-407.409-51.773c-6.024,0-10.927,4.902-10.927,10.927c0,6.025,4.902,10.927,10.927,10.927
	c6.025,0,10.927-4.901,10.927-10.927C-396.482-46.871-401.383-51.773-407.409-51.773z M-407.409-33.419
	c-4.095,0-7.427-3.331-7.427-7.427c0-4.095,3.332-7.427,7.427-7.427c4.096,0,7.427,3.332,7.427,7.427
	C-399.982-36.75-403.313-33.419-407.409-33.419z"/>
<linearGradient id="SVGID_3_" gradientUnits="userSpaceOnUse" x1="-466.7212" y1="-95.2808" x2="-384.3843" y2="-95.2808">
	<stop  offset="0" style="stop-color:#3D434F"/>
	<stop  offset="1" style="stop-color:#E5204F"/>
</linearGradient>
<path fill="url(#SVGID_3_)" d="M-386.134-103.079h-54.227c-0.176,0-0.351,0.026-0.519,0.078
	c-25.224,7.828-25.64,10.328-25.817,11.396c-0.017,0.095-0.024,0.191-0.024,0.287v2.018c0,0.959,0.771,1.739,1.73,1.75l5.859,0.067
	h72.997c0.966,0,1.75-0.783,1.75-1.75v-12.096C-384.384-102.295-385.168-103.079-386.134-103.079z M-387.884-90.983h-71.228
	l-3.728-0.043c2.813-1.795,13.405-5.645,22.744-8.553h52.211V-90.983z"/>
<linearGradient id="SVGID_4_" gradientUnits="userSpaceOnUse" x1="-478.1157" y1="-62.3281" x2="-384.5171" y2="-62.3281">
	<stop  offset="0" style="stop-color:#3D434F"/>
	<stop  offset="1" style="stop-color:#E5204F"/>
</linearGradient>
<path fill="url(#SVGID_4_)" d="M-386.267-52.61h-1.455v-22.987c0-3.883-3.159-7.043-7.043-7.043h-56.153
	c-3.994,0-19.757,13.437-23.104,19.694c-1.294,2.421-1.203,6.646-0.771,10.336h-1.572c-0.966,0-1.75,0.784-1.75,1.75v7.094
	c0,0.967,0.784,1.75,1.75,1.75h9.853c0.838,0,1.558-0.593,1.718-1.415c1.225-6.282,6.765-10.842,13.172-10.842
	s11.947,4.56,13.172,10.842c0.16,0.822,0.88,1.415,1.718,1.415h14.471c0.838,0,1.558-0.593,1.718-1.415
	c1.225-6.282,6.765-10.842,13.172-10.842s11.947,4.56,13.172,10.842c0.16,0.822,0.88,1.415,1.718,1.415h6.217
	c0.967,0,1.75-0.783,1.75-1.75v-7.094C-384.517-51.826-385.3-52.61-386.267-52.61z M-388.017-45.516h-3.089
	c-2.056-7.182-8.679-12.257-16.268-12.257s-14.212,5.075-16.268,12.257h-11.715c-2.056-7.182-8.679-12.257-16.268-12.257
	s-14.212,5.075-16.268,12.257h-6.725v-3.594h1.826c0.511,0,0.996-0.223,1.328-0.61c0.333-0.388,0.479-0.901,0.401-1.405
	c-0.743-4.832-0.697-8.634,0.124-10.17c3.115-5.825,17.698-17.486,20.018-17.845h56.153c1.954,0,3.543,1.59,3.543,3.543v24.737
	c0,0.967,0.784,1.75,1.75,1.75h1.455V-45.516z"/>
<linearGradient id="SVGID_5_" gradientUnits="userSpaceOnUse" x1="-458.8843" y1="-70.8286" x2="-440.3843" y2="-70.8286">
	<stop  offset="0" style="stop-color:#3D434F"/>
	<stop  offset="1" style="stop-color:#E5204F"/>
</linearGradient>
<path fill="url(#SVGID_5_)" d="M-442.022-76.289c-0.087-0.005-2.15-0.137-4.224-0.137c-3.213,0-4.254,0.306-4.893,0.798
	c-1.006,0.776-5.821,5.891-7.273,7.439c-0.477,0.509-0.605,1.252-0.329,1.892c0.277,0.64,0.908,1.055,1.605,1.055l14.917,0.01
	c0,0,0,0,0.001,0c0.959,0,1.739-0.772,1.75-1.731l0.083-7.56C-440.375-75.453-441.093-76.228-442.022-76.289z M-443.949-68.733
	l-9.124-0.006c1.815-1.901,3.4-3.523,3.948-4.012c0.243-0.057,0.983-0.175,2.879-0.175c0.82,0,1.652,0.022,2.343,0.049
	L-443.949-68.733z"/>
<linearGradient id="SVGID_6_" gradientUnits="userSpaceOnUse" x1="-437.2827" y1="-70.7822" x2="-397.5337" y2="-70.7822">
	<stop  offset="0" style="stop-color:#3D434F"/>
	<stop  offset="1" style="stop-color:#E5204F"/>
</linearGradient>
<path fill="url(#SVGID_6_)" d="M-399.284-68.732h-34.499v-5.851c0-0.966-0.784-1.75-1.75-1.75c-0.967,0-1.75,0.784-1.75,1.75v7.601
	c0,0.967,0.783,1.75,1.75,1.75h36.249c0.967,0,1.75-0.783,1.75-1.75C-397.534-67.948-398.317-68.732-399.284-68.732z"/>
<g>
	<linearGradient id="SVGID_7_" gradientUnits="userSpaceOnUse" x1="-317.9136" y1="-93.9854" x2="-296.4478" y2="-93.9854">
		<stop  offset="0" style="stop-color:#3D434F"/>
		<stop  offset="1" style="stop-color:#E5204F"/>
	</linearGradient>
	<path fill="url(#SVGID_7_)" d="M-316.24-88.46c0.101,0,0.204-0.008,0.306-0.028c2.676-0.494,6.912-1.542,8.752-3.419
		c1.841,1.877,6.077,2.925,8.752,3.419c0.103,0.02,0.206,0.028,0.306,0.028c0.792,0,1.497-0.564,1.646-1.37
		c0.168-0.909-0.433-1.785-1.342-1.953c-2.755-0.511-5.627-1.461-6.663-2.162l3.003-2.628c0.697-0.61,0.767-1.668,0.158-2.364
		c-0.611-0.699-1.669-0.768-2.365-0.158l-3.242,2.837c-0.097,0.084-0.171,0.17-0.254,0.255c-0.083-0.085-0.157-0.17-0.254-0.255
		l-3.242-2.837c-0.697-0.609-1.757-0.539-2.365,0.158c-0.61,0.696-0.54,1.754,0.157,2.364l3.004,2.628
		c-1.036,0.701-3.908,1.651-6.663,2.162c-0.91,0.168-1.51,1.044-1.342,1.953C-317.736-89.024-317.032-88.46-316.24-88.46z"/>
	<linearGradient id="SVGID_8_" gradientUnits="userSpaceOnUse" x1="-344.2212" y1="-60.6465" x2="-269.4028" y2="-60.6465">
		<stop  offset="0" style="stop-color:#3D434F"/>
		<stop  offset="1" style="stop-color:#E5204F"/>
	</linearGradient>
	<path fill="url(#SVGID_8_)" d="M-281.55-81.173c-0.576-0.724-1.628-0.845-2.354-0.27c-0.724,0.576-0.845,1.63-0.271,2.354
		c0.156,0.196,15.498,19.712,10.431,29.904c-2.197,4.42-8.221,6.561-17.93,6.329h-30.315c-9.679,0.228-15.694-1.908-17.892-6.329
		c-5.066-10.192,10.274-29.708,10.43-29.904c0.575-0.725,0.455-1.778-0.27-2.354c-0.725-0.575-1.779-0.454-2.354,0.27
		c-0.689,0.868-16.816,21.386-10.809,33.478c2.707,5.45,9.295,8.208,19.559,8.208c0.451,0,0.909-0.005,1.374-0.017h30.239
		c11.089,0.236,18.145-2.503,20.97-8.191C-264.734-59.787-280.861-80.305-281.55-81.173z"/>
	<linearGradient id="SVGID_9_" gradientUnits="userSpaceOnUse" x1="-338.8896" y1="-82.1123" x2="-275.228" y2="-82.1123">
		<stop  offset="0" style="stop-color:#3D434F"/>
		<stop  offset="1" style="stop-color:#E5204F"/>
	</linearGradient>
	<path fill="url(#SVGID_9_)" d="M-336.921-77.958c0.217,0,0.437-0.042,0.649-0.131c0.853-0.36,1.254-1.342,0.894-2.195
		c-0.004-0.01-0.379-1.033,0.041-1.665c0.407-0.614,1.636-0.966,3.372-0.966h23.719h2.375h23.718c1.726,0,2.953,0.348,3.367,0.956
		c0.428,0.63,0.057,1.646,0.041,1.691c-0.348,0.848,0.052,1.822,0.9,2.18c0.211,0.089,0.432,0.131,0.65,0.131
		c0.653,0,1.275-0.385,1.544-1.025c0.114-0.271,1.07-2.701-0.338-4.82c-1.084-1.635-3.159-2.463-6.165-2.463h-23.718h-2.375h-23.719
		c-3.005,0-5.079,0.828-6.165,2.463c-1.408,2.121-0.451,4.551-0.337,4.82C-338.197-78.343-337.576-77.958-336.921-77.958z"/>
	<linearGradient id="SVGID_10_" gradientUnits="userSpaceOnUse" x1="-328.6821" y1="-79.3721" x2="-303.6733" y2="-79.3721">
		<stop  offset="0" style="stop-color:#3D434F"/>
		<stop  offset="1" style="stop-color:#E5204F"/>
	</linearGradient>
	<path fill="url(#SVGID_10_)" d="M-327.006-81.048c-0.926,0-1.676,0.75-1.676,1.676c0,0.925,0.75,1.676,1.676,1.676h21.657
		c0.925,0,1.676-0.75,1.676-1.676c0-0.926-0.75-1.676-1.676-1.676H-327.006z"/>
</g>
<linearGradient id="SVGID_11_" gradientUnits="userSpaceOnUse" x1="-229.8877" y1="-67.499" x2="-147.0547" y2="-67.499">
	<stop  offset="0" style="stop-color:#3D434F"/>
	<stop  offset="1" style="stop-color:#E5204F"/>
</linearGradient>
<path fill="url(#SVGID_11_)" d="M-188.471-108.916c-22.838,0-41.417,18.58-41.417,41.417c0,21.617,16.651,39.409,37.798,41.249
	c0.412,0.042,0.844,0.074,1.293,0.099c0.129,0.007,0.258,0.014,0.389,0.02c0.393,0.017,0.801,0.027,1.223,0.031
	c0.238,0.004,0.475,0.018,0.715,0.018c0.994,0,1.977-0.048,2.953-0.117c2.65-0.163,4.686-0.459,4.803-0.477
	c0.262-0.039,0.51-0.137,0.725-0.282c18.783-3.924,32.936-20.609,32.936-40.541C-147.055-90.336-165.635-108.916-188.471-108.916z
	 M-206.975-44.941l-3.229,1.915l-1.771,1.051l-0.488-0.467l0.959-1.801l1.758-3.302l13.25-24.885l3.566,3.408l-2.162,2.265
	c-1.279,1.338-1.619,3.126-0.912,4.783c0.754,1.76,2.494,2.942,4.334,2.942c1.184,0,2.314-0.504,3.186-1.417l2.162-2.264
	l3.568,3.405L-206.975-44.941z M-192.516-64.298l3.391-3.553c0.01-0.01,0.016-0.021,0.025-0.032
	c0.008-0.008,0.018-0.014,0.023-0.021l4.02-4.208c0.299-0.313,0.533-0.313,0.609-0.313c0.4,0,0.875,0.351,1.061,0.781
	c0.145,0.339,0.082,0.616-0.213,0.923l-4.018,4.209c-0.01,0.009-0.016,0.021-0.023,0.03c-0.01,0.009-0.02,0.014-0.027,0.022
	l-3.391,3.551c-0.301,0.314-0.533,0.314-0.611,0.314c-0.4,0-0.875-0.351-1.059-0.781C-192.875-63.714-192.811-63.991-192.516-64.298
	z M-183.813-65.34l2.789-2.922c1.277-1.339,1.619-3.127,0.91-4.783c-0.752-1.759-2.494-2.94-4.334-2.94
	c-1.182,0-2.313,0.502-3.186,1.415l-2.789,2.92l-3.566-3.406l24.803-14.713l3.209-1.903l1.209-0.717l0.488,0.468l-0.666,1.249
	l-1.762,3.309l-13.539,25.43L-183.813-65.34z M-179.842-104.413c6.035,1.411,11.516,4.271,16.064,8.184
	c-0.52-0.236-1.135-0.216-1.646,0.088l-3.459,2.053l-0.67,0.396c-3.588-2.598-7.73-4.462-12.209-5.413L-179.842-104.413z
	 M-188.467-105.366c1.941,0,3.791,0.174,5.125,0.342l-1.941,5.364l-1.23,3.4l-1.852,5.119l-1.998-5.123l-1.328-3.408l-1.998-5.125
	C-192.279-105.171-190.508-105.366-188.467-105.366z M-189.934-85.53c0.262,0.672,0.908,1.114,1.629,1.114c0.008,0,0.016,0,0.021,0
	c0.73-0.009,1.377-0.469,1.625-1.155l3.695-10.213c3.656,0.712,7.068,2.105,10.094,4.06l-24.953,14.801
	c-0.154,0.091-0.281,0.208-0.398,0.336c-0.07,0.07-0.131,0.146-0.189,0.229l0,0c-0.043,0.061-0.09,0.116-0.125,0.183l-13.471,25.297
	c-2.344-3.311-3.996-7.137-4.779-11.269h4.652c0.967,0,1.75-0.783,1.75-1.75v-7c0-0.966-0.783-1.75-1.75-1.75h-4.711
	c2.113-11.671,11.277-20.915,22.904-23.157L-189.934-85.53z M-216.051-65.648v-3.5h2.168v3.5H-216.051z M-226.388-67.499
	c0-17.875,12.437-32.889,29.108-36.873l2.049,5.255c-14.594,3.117-25.574,16.107-25.574,31.617c0,7.561,2.617,14.518,6.982,20.03
	l-0.215,0.405l-2.203,4.14c-0.168,0.313-0.217,0.659-0.188,0.995C-222.606-48.674-226.388-57.65-226.388-67.499z M-197.223-30.614
	c-5.572-1.322-10.67-3.882-14.992-7.363c0.309-0.002,0.617-0.082,0.896-0.247l4.109-2.438l0.398-0.237
	c3.455,2.389,7.398,4.111,11.643,5.012L-197.223-30.614z M-185.35-29.721c-1.057,0.072-2.217,0.127-3.4,0.127
	c-0.102,0-0.193-0.002-0.293-0.003c-0.447-0.007-0.896-0.012-1.34-0.034c-0.039-0.001-0.074-0.004-0.111-0.006
	c-0.432-0.023-0.859-0.061-1.287-0.098c-0.779-0.082-1.408-0.19-1.906-0.309l2.063-5.292l1.322-3.395l1.938-4.969l1.797,4.965
	l1.234,3.415l1.949,5.387C-184.035-29.846-184.689-29.776-185.35-29.721z M-186.658-49.27c-0.248-0.686-0.895-1.146-1.625-1.154
	c-0.711-0.02-1.387,0.435-1.65,1.114l-3.945,10.119c-3.447-0.659-6.682-1.924-9.58-3.694l24.541-14.557
	c0.152-0.091,0.281-0.207,0.396-0.334c0.123-0.123,0.234-0.256,0.316-0.413l13.572-25.491c2.221,3.263,3.783,7.004,4.516,11.033
	h-4.383c-0.967,0-1.75,0.784-1.75,1.75v7c0,0.967,0.783,1.75,1.75,1.75h4.361c-2.184,11.578-11.309,20.731-22.873,22.957
	L-186.658-49.27z M-160.582-69.148v3.5h-2.168v-3.5H-160.582z M-179.895-30.573l-1.912-5.287c14.643-3.08,25.67-16.095,25.67-31.639
	c0-7.375-2.494-14.173-6.666-19.62l0.367-0.689l1.934-3.634c0.266-0.5,0.262-1.078,0.037-1.571c6.148,6.739,9.91,15.692,9.91,25.514
	C-150.555-49.542-163.105-34.472-179.895-30.573z"/>
<g>
	<g>
		<linearGradient id="SVGID_12_" gradientUnits="userSpaceOnUse" x1="-108.4619" y1="-66.499" x2="-30.1318" y2="-66.499">
			<stop  offset="0" style="stop-color:#3D434F"/>
			<stop  offset="1" style="stop-color:#E5204F"/>
		</linearGradient>
		<path fill="url(#SVGID_12_)" d="M-37.173-87.418h-42.756l-1.56-3.134c-0.542-1.09-1.636-1.767-2.854-1.767h-11.251
			c-1.248,0-2.387,0.733-2.902,1.87l-1.375,3.03h-1.551c-3.883,0-7.041,3.334-7.041,7.433v31.875c0,4.099,3.158,7.432,7.041,7.432
			h64.248c3.883,0,7.041-3.333,7.041-7.432v-31.875C-30.132-84.084-33.29-87.418-37.173-87.418z M-104.818-79.986
			c0-2.089,1.524-3.789,3.397-3.789h3.898l2.224-4.901h10.675l2.439,4.901h45.012c1.874,0,3.397,1.7,3.397,3.789v31.875
			c0,2.089-1.523,3.789-3.397,3.789h-64.248c-1.873,0-3.397-1.7-3.397-3.789V-79.986z"/>
		<linearGradient id="SVGID_13_" gradientUnits="userSpaceOnUse" x1="-98.71" y1="-75.9238" x2="-80.7002" y2="-75.9238">
			<stop  offset="0" style="stop-color:#3D434F"/>
			<stop  offset="1" style="stop-color:#E5204F"/>
		</linearGradient>
		<path fill="url(#SVGID_13_)" d="M-92.96-70.172h6.509c3.171,0,5.751-2.58,5.751-5.751c0-3.172-2.58-5.752-5.751-5.752h-6.509
			c-3.171,0-5.75,2.58-5.75,5.752C-98.71-72.752-96.131-70.172-92.96-70.172z M-92.96-78.032h6.509c1.161,0,2.107,0.945,2.107,2.108
			c0,1.162-0.946,2.108-2.107,2.108h-6.509c-1.162,0-2.107-0.946-2.107-2.108C-95.067-77.086-94.122-78.032-92.96-78.032z"/>
		<linearGradient id="SVGID_14_" gradientUnits="userSpaceOnUse" x1="-73.1279" y1="-63.6592" x2="-39.0186" y2="-63.6592">
			<stop  offset="0" style="stop-color:#3D434F"/>
			<stop  offset="1" style="stop-color:#E5204F"/>
		</linearGradient>
		<path fill="url(#SVGID_14_)" d="M-56.073-46.604c9.404,0,17.055-7.651,17.055-17.056c0-9.403-7.65-17.055-17.055-17.055
			s-17.055,7.651-17.055,17.055C-73.128-54.255-65.478-46.604-56.073-46.604z M-56.073-77.071c7.396,0,13.412,6.016,13.412,13.411
			s-6.016,13.412-13.412,13.412c-7.395,0-13.412-6.017-13.412-13.412S-63.468-77.071-56.073-77.071z"/>
	</g>
	<linearGradient id="SVGID_15_" gradientUnits="userSpaceOnUse" x1="-61.5674" y1="-63.6597" x2="-50.5781" y2="-63.6597">
		<stop  offset="0" style="stop-color:#3D434F"/>
		<stop  offset="1" style="stop-color:#E5204F"/>
	</linearGradient>
	<circle fill="url(#SVGID_15_)" cx="-56.073" cy="-63.66" r="5.495"/>
</g>
<g>
	<linearGradient id="SVGID_16_" gradientUnits="userSpaceOnUse" x1="7.9854" y1="-73.499" x2="93.3613" y2="-73.499">
		<stop  offset="0" style="stop-color:#3D434F"/>
		<stop  offset="1" style="stop-color:#E5204F"/>
	</linearGradient>
	<path fill="url(#SVGID_16_)" d="M87.382-64.332H47.499l12.875-15.336c0.627-0.675,6.088-6.739,4.893-11.847
		c-1-4.268-3.908-19.085-3.938-19.235c-0.129-0.656-0.62-1.182-1.266-1.354c-0.646-0.171-1.334,0.039-1.772,0.543L17.245-64.332
		h-3.279c-3.297,0-5.98,2.682-5.98,5.979v17.536c0,3.297,2.684,5.979,5.98,5.979h73.416c3.297,0,5.979-2.683,5.979-5.979v-17.536
		C93.361-61.65,90.679-64.332,87.382-64.332z M58.587-106.566c0.934,4.704,2.557,12.792,3.271,15.85
		c0.654,2.795-2.791,7.308-4.107,8.732l-14.82,17.652H21.883L58.587-106.566z M89.861-40.816c0,1.367-1.112,2.479-2.479,2.479
		H25.673h-5.252h-6.455c-1.367,0-2.48-1.112-2.48-2.479v-7.605v-9.283v-0.647c0-1.368,1.113-2.479,2.48-2.479h0.238h4.637h21.15
		h4.568h42.822c1.367,0,2.479,1.111,2.479,2.479V-40.816z"/>
	<linearGradient id="SVGID_17_" gradientUnits="userSpaceOnUse" x1="13.5732" y1="-49.7065" x2="26.3057" y2="-49.7065">
		<stop  offset="0" style="stop-color:#3D434F"/>
		<stop  offset="1" style="stop-color:#E5204F"/>
	</linearGradient>
	<path fill="url(#SVGID_17_)" d="M19.94-56.073c-3.014,0-5.539,2.106-6.195,4.923c-0.108,0.465-0.172,0.946-0.172,1.443
		c0,3.51,2.856,6.366,6.367,6.366c0.232,0,0.462-0.015,0.688-0.039c3.188-0.345,5.677-3.05,5.677-6.327
		C26.306-53.216,23.45-56.073,19.94-56.073z M19.94-46.84c-1.581,0-2.867-1.285-2.867-2.866s1.286-2.866,2.867-2.866
		c1.58,0,2.865,1.285,2.865,2.866S21.521-46.84,19.94-46.84z"/>
	<linearGradient id="SVGID_18_" gradientUnits="userSpaceOnUse" x1="36.21" y1="-82.1602" x2="48.8535" y2="-82.1602">
		<stop  offset="0" style="stop-color:#3D434F"/>
		<stop  offset="1" style="stop-color:#E5204F"/>
	</linearGradient>
	<path fill="url(#SVGID_18_)" d="M48.243-88.815c-0.732-0.629-1.838-0.545-2.468,0.188l-9.144,10.653
		c-0.629,0.733-0.545,1.838,0.188,2.468c0.33,0.283,0.735,0.422,1.139,0.422c0.493,0,0.983-0.207,1.329-0.61l9.144-10.653
		C49.062-87.081,48.977-88.185,48.243-88.815z"/>
</g>
<g>
	<linearGradient id="SVGID_19_" gradientUnits="userSpaceOnUse" x1="-464.8413" y1="52.501" x2="-393.8037" y2="52.501">
		<stop  offset="0" style="stop-color:#3D434F"/>
		<stop  offset="1" style="stop-color:#E5204F"/>
	</linearGradient>
	<path fill="url(#SVGID_19_)" d="M-426.731,92.809h-5.183c-0.966,0-1.75-0.784-1.75-1.75V62.37h-19.312
		c-0.383,0-0.756-0.126-1.061-0.358l-10.115-7.709c-0.427-0.324-0.681-0.826-0.689-1.361c-0.01-0.537,0.229-1.047,0.643-1.386
		l10.117-8.253c0.313-0.255,0.703-0.395,1.105-0.395h19.312v-5.207h-29.427c-0.967,0-1.75-0.783-1.75-1.75V19.989
		c0-0.966,0.783-1.75,1.75-1.75h29.427v-4.295c0-0.966,0.784-1.75,1.75-1.75h5.183c0.966,0,1.75,0.784,1.75,1.75v4.295h19.311
		c0.404,0,0.795,0.139,1.107,0.394l10.115,8.253c0.416,0.339,0.652,0.85,0.645,1.386c-0.01,0.536-0.264,1.039-0.689,1.363
		l-10.117,7.708c-0.305,0.232-0.677,0.358-1.061,0.358h-19.311v5.207h29.428c0.966,0,1.75,0.784,1.75,1.75V60.62
		c0,0.966-0.784,1.75-1.75,1.75h-29.428v28.688C-424.981,92.024-425.766,92.809-426.731,92.809z M-430.164,89.309h1.683V60.62
		c0-0.967,0.783-1.75,1.75-1.75h29.428V46.408h-29.428c-0.967,0-1.75-0.784-1.75-1.75v-8.707c0-0.966,0.783-1.75,1.75-1.75h20.471
		l7.881-6.005l-7.914-6.457h-20.438c-0.967,0-1.75-0.784-1.75-1.75v-4.295h-1.683v4.295c0,0.966-0.784,1.75-1.75,1.75h-29.427
		v12.462h29.427c0.966,0,1.75,0.784,1.75,1.75v8.707c0,0.966-0.784,1.75-1.75,1.75h-20.438l-7.914,6.458l7.882,6.005h20.47
		c0.966,0,1.75,0.783,1.75,1.75V89.309z"/>
</g>
<g>
	<linearGradient id="SVGID_20_" gradientUnits="userSpaceOnUse" x1="-352.8638" y1="78.2979" x2="-273.2261" y2="78.2979">
		<stop  offset="0" style="stop-color:#3D434F"/>
		<stop  offset="1" style="stop-color:#E5204F"/>
	</linearGradient>
	<path fill="url(#SVGID_20_)" d="M-273.312,67.646c-0.02-0.953-0.797-1.713-1.75-1.713l-76.053-0.004
		c-0.629,0-1.21,0.338-1.521,0.885s-0.305,1.219,0.017,1.76c0.536,0.9,13.289,22.084,27.035,22.084h44.985
		c0.073,0.004,0.195,0.008,0.358,0.008c2.667,0,5.79-1.137,6.559-4.33C-272.997,83.494-273.277,69.26-273.312,67.646z
		 M-277.084,85.518c-0.358,1.488-2.326,1.648-3.155,1.648c-0.103,0-0.17-0.002-0.181-0.002c-0.042-0.004-0.084-0.006-0.126-0.006
		h-45.036c-9.152,0-18.537-12.215-22.307-17.729l71.111,0.004C-276.683,75.406-276.688,83.873-277.084,85.518z"/>
	<linearGradient id="SVGID_21_" gradientUnits="userSpaceOnUse" x1="-353.2744" y1="36.2451" x2="-298.771" y2="36.2451">
		<stop  offset="0" style="stop-color:#3D434F"/>
		<stop  offset="1" style="stop-color:#E5204F"/>
	</linearGradient>
	<path fill="url(#SVGID_21_)" d="M-351.523,63.496c0.255,0,0.514-0.057,0.755-0.172c0.142-0.068,14.307-6.791,25.093-6.791
		c11.995,0,24.19,6.615,24.312,6.682c0.543,0.297,1.202,0.287,1.734-0.027c0.532-0.316,0.859-0.887,0.859-1.506V10.744
		c0-0.967-0.784-1.75-1.75-1.75c-22.543,0-51.309,49.764-52.522,51.883c-0.381,0.664-0.285,1.5,0.237,2.061
		C-352.467,63.303-352,63.496-351.523,63.496z M-302.271,12.609v46.247c-4.414-2.055-13.812-5.822-23.404-5.822
		c-7.501,0-16.183,2.867-21.54,4.969C-339.755,46.024-318.805,14.745-302.271,12.609z"/>
	<linearGradient id="SVGID_22_" gradientUnits="userSpaceOnUse" x1="-296.4937" y1="42.168" x2="-273.3521" y2="42.168">
		<stop  offset="0" style="stop-color:#3D434F"/>
		<stop  offset="1" style="stop-color:#E5204F"/>
	</linearGradient>
	<path fill="url(#SVGID_22_)" d="M-293.706,41.345c0,14.766-2.526,19.426-2.546,19.463c-0.389,0.664-0.3,1.502,0.219,2.068
		s1.347,0.729,2.041,0.4c0.06-0.029,6.046-2.846,10.457-2.846c3.69,0,7.323,2.67,7.384,2.715c0.311,0.232,0.68,0.35,1.05,0.35
		c0.346,0,0.693-0.102,0.992-0.309c0.62-0.426,0.897-1.201,0.69-1.924c-2.725-9.482-12.315-40.424-21.324-40.424
		c-0.56,0-1.085,0.268-1.415,0.72c-0.33,0.452-0.423,1.035-0.251,1.567C-295.192,26.9-293.706,36.047-293.706,41.345z
		 M-278.001,58.15c-1.589-0.664-3.522-1.219-5.535-1.219c-2.78,0-5.933,0.875-8.305,1.709c0.798-3.201,1.635-8.625,1.635-17.295
		c0-4.267-0.864-10.595-1.84-15.226C-287.891,30.882-282.225,44.481-278.001,58.15z"/>
	<linearGradient id="SVGID_23_" gradientUnits="userSpaceOnUse" x1="-333.1938" y1="78.2109" x2="-321.6406" y2="78.2109">
		<stop  offset="0" style="stop-color:#3D434F"/>
		<stop  offset="1" style="stop-color:#E5204F"/>
	</linearGradient>
	<path fill="url(#SVGID_23_)" d="M-327.417,72.434c-3.185,0-5.776,2.592-5.776,5.777s2.591,5.777,5.776,5.777
		c3.186,0,5.777-2.592,5.777-5.777S-324.232,72.434-327.417,72.434z M-327.417,80.488c-1.255,0-2.276-1.021-2.276-2.277
		s1.021-2.277,2.276-2.277s2.277,1.021,2.277,2.277S-326.162,80.488-327.417,80.488z"/>
</g>
<g>
	<linearGradient id="SVGID_24_" gradientUnits="userSpaceOnUse" x1="-220.417" y1="42.9502" x2="-215.0479" y2="42.9502">
		<stop  offset="0" style="stop-color:#3D434F"/>
		<stop  offset="1" style="stop-color:#E5204F"/>
	</linearGradient>
	<path fill="url(#SVGID_24_)" d="M-216.908,36.57c0.021-0.966-0.744-1.767-1.711-1.788c-0.943-0.023-1.766,0.743-1.789,1.71
		c-0.092,4.133,0.557,8.629,1.93,13.364c0.221,0.766,0.92,1.264,1.68,1.264c0.16,0,0.324-0.021,0.488-0.07
		c0.928-0.268,1.461-1.238,1.193-2.168C-216.391,44.49-216.994,40.348-216.908,36.57z"/>
	<linearGradient id="SVGID_25_" gradientUnits="userSpaceOnUse" x1="-213.4219" y1="20.1494" x2="-207.6299" y2="20.1494">
		<stop  offset="0" style="stop-color:#3D434F"/>
		<stop  offset="1" style="stop-color:#E5204F"/>
	</linearGradient>
	<path fill="url(#SVGID_25_)" d="M-210.373,17.739c-0.799,0.552-1.625,1.249-2.525,2.132c-0.689,0.677-0.699,1.785-0.023,2.475
		c0.344,0.35,0.797,0.524,1.25,0.524c0.441,0,0.885-0.166,1.225-0.501c0.756-0.741,1.43-1.313,2.063-1.749
		c0.795-0.549,0.994-1.639,0.445-2.435C-208.488,17.39-209.578,17.19-210.373,17.739z"/>
	<linearGradient id="SVGID_26_" gradientUnits="userSpaceOnUse" x1="-195.6514" y1="38.5068" x2="-192.0068" y2="38.5068">
		<stop  offset="0" style="stop-color:#3D434F"/>
		<stop  offset="1" style="stop-color:#E5204F"/>
	</linearGradient>
	<path fill="url(#SVGID_26_)" d="M-193.803,34.782c-0.967,0.021-1.732,0.821-1.713,1.787c0.027,1.23-0.016,2.494-0.129,3.759
		c-0.084,0.961,0.627,1.813,1.59,1.896c0.053,0.006,0.104,0.008,0.156,0.008c0.896,0,1.66-0.686,1.74-1.596
		c0.125-1.393,0.172-2.787,0.143-4.144C-192.037,35.526-192.859,34.757-193.803,34.782z"/>
	<linearGradient id="SVGID_27_" gradientUnits="userSpaceOnUse" x1="-233.623" y1="52.8291" x2="-144.002" y2="52.8291">
		<stop  offset="0" style="stop-color:#3D434F"/>
		<stop  offset="1" style="stop-color:#E5204F"/>
	</linearGradient>
	<path fill="url(#SVGID_27_)" d="M-152.338,22.663c-2.043-3.992-6.105-6.51-10.664-6.51c-6.109,0-11.168,4.59-11.906,10.502
		c-2.043,0.047-3.863,1.007-5.072,2.485c-3.938-10.508-14.08-18.009-25.945-18.009c-15.271,0-27.697,12.426-27.697,27.699
		c0,9.408,3.918,14.484,8.453,20.363c1.213,1.572,2.467,3.197,3.734,5.01c2.244,3.215,8.975,15.984,9.043,16.113l0.105,0.199
		c-0.193,0.281-0.307,0.621-0.307,0.988v5.553c-0.002,0.053-0.016,0.102-0.016,0.154v3.268c0,2.232,1.816,4.049,4.049,4.049h5.014
		c2.232,0,4.049-1.816,4.049-4.049v-3.268c0-0.09-0.02-0.176-0.025-0.266v-5.441c0-0.266-0.064-0.514-0.17-0.74l0.236-0.447
		c0.068-0.129,6.799-12.898,9.043-16.111c1.268-1.814,2.521-3.439,3.734-5.012c4.479-5.807,8.348-10.838,8.443-20.02
		c1.02,0.617,2.209,0.979,3.484,0.979c1.889,0,3.66-0.797,4.916-2.137c1.994,1.389,4.359,2.137,6.834,2.137
		c1.951,0,3.852-0.469,5.563-1.367c1.395,0.889,3.02,1.367,4.688,1.367c4.824,0,8.75-3.924,8.75-8.75
		C-144.002,26.717-147.705,22.879-152.338,22.663z M-200.064,74.023c-0.836,1.549-1.549,2.887-1.996,3.727h-7.73
		c-0.449-0.846-1.17-2.199-2.014-3.762L-200.064,74.023z M-203.023,83.215c-0.174-0.021-0.344-0.053-0.523-0.053h-5.014
		c-0.184,0-0.357,0.031-0.533,0.055v-1.713c0-0.086-0.014-0.17-0.027-0.254h6.123c-0.014,0.084-0.025,0.168-0.025,0.254V83.215z
		 M-203.547,91.027h-5.014c-0.303,0-0.549-0.246-0.549-0.549v-0.313c0.004-0.051,0.016-0.102,0.016-0.154v-2.877
		c0.039-0.266,0.258-0.473,0.533-0.473h5.014c0.256,0,0.461,0.18,0.523,0.416v2.934c0,0.092,0.012,0.178,0.025,0.266v0.201
		C-202.998,90.781-203.244,91.027-203.547,91.027z M-189.451,57.055c-1.236,1.605-2.518,3.264-3.832,5.145
		c-1.078,1.543-3.035,4.986-4.877,8.33l-3.414-0.01c1.016-3.172,2.273-6.326,3.508-9.387c1.871-4.641,3.807-9.439,4.949-14.479
		c0.215-0.941-0.377-1.879-1.32-2.092c-0.941-0.215-1.879,0.377-2.092,1.318c-1.08,4.766-2.963,9.432-4.783,13.943
		c-1.395,3.455-2.826,7.025-3.934,10.684l-1.932-0.006c-1.107-3.668-2.516-7.152-3.883-10.521c-0.604-1.486-1.207-2.971-1.785-4.473
		c-0.346-0.902-1.361-1.354-2.262-1.006s-1.352,1.359-1.004,2.262c0.586,1.521,1.195,3.027,1.809,4.533
		c1.207,2.975,2.436,6.041,3.447,9.195l-2.859-0.008c-1.834-3.33-3.779-6.748-4.852-8.285c-1.314-1.881-2.594-3.539-3.832-5.145
		c-4.484-5.811-7.725-10.01-7.725-18.225c0-13.343,10.855-24.199,24.197-24.199c13.344,0,24.199,10.855,24.199,24.199
		C-181.727,47.043-184.967,51.242-189.451,57.055z M-152.752,36.653c-1.258,0-2.477-0.456-3.432-1.285
		c-0.328-0.284-0.736-0.429-1.148-0.429c-0.336,0-0.674,0.097-0.969,0.293c-1.396,0.93-3.021,1.421-4.701,1.421
		c-2.246,0-4.365-0.87-5.967-2.451c-0.408-0.402-0.986-0.579-1.551-0.475c-0.563,0.105-1.039,0.479-1.273,1.003
		c-0.527,1.168-1.688,1.923-2.959,1.923c-1.791,0-3.25-1.458-3.25-3.25s1.459-3.25,3.25-3.25c0.299,0,0.611,0.057,0.988,0.179
		c0.547,0.176,1.146,0.072,1.602-0.276c0.457-0.35,0.713-0.9,0.684-1.475l-0.012-0.209c-0.006-0.072-0.012-0.146-0.012-0.219
		c0-4.687,3.813-8.5,8.5-8.5c3.525,0,6.633,2.128,7.914,5.421c0.285,0.731,1.025,1.179,1.805,1.106
		c0.174-0.018,0.352-0.027,0.531-0.027c2.895,0,5.25,2.355,5.25,5.25C-147.502,34.298-149.857,36.653-152.752,36.653z"/>
</g>
<g>
	<linearGradient id="SVGID_28_" gradientUnits="userSpaceOnUse" x1="-108.1572" y1="51.8301" x2="-32.7852" y2="51.8301">
		<stop  offset="0" style="stop-color:#3D434F"/>
		<stop  offset="1" style="stop-color:#E5204F"/>
	</linearGradient>
	<path fill="url(#SVGID_28_)" d="M-32.787,23.938c0.068-3.392-1.453-5.451-2.449-6.517l-0.031-0.033
		c-0.105-0.113-0.207-0.215-0.297-0.305c-0.092-0.091-0.191-0.191-0.307-0.298l-0.031-0.031c-1.066-0.996-3.127-2.518-6.518-2.45
		c-6.457,0.128-15.088,6.004-25.658,17.449l-22.664-0.795c0,0-6.248-0.365-9.949,1.247c-3.703,1.612-7.206,3.439-7.421,4.191
		c-0.118,0.413-0.011,0.853,0.385,1.247c0.264,0.264,0.654,0.509,1.192,0.713c0,0,22.271,7.882,25.6,9.059
		c-10.73,15.198-8.318,20.534-7.557,21.612c0.057,0.08,0.121,0.156,0.191,0.227l0.564,0.564c0.07,0.07,0.146,0.135,0.229,0.193
		c1.074,0.758,6.385,3.162,21.486-7.471c1.055,3.055,8.863,25.193,8.863,25.193c0.207,0.539,0.451,0.93,0.715,1.193
		c0.395,0.396,0.834,0.504,1.246,0.385c0.752-0.215,2.58-3.719,4.191-7.42c1.611-3.703,1.248-9.949,1.248-9.949l-0.775-22.075
		C-38.895,39.173-32.916,30.452-32.787,23.938z M-101.51,36.418c0.658-0.312,1.396-0.647,2.215-1.004
		c2.123-0.924,6.248-1.08,8.352-0.962c0.023,0.001,0.053,0.003,0.078,0.004l19.734,0.692c-3.059,3.481-5.633,6.636-7.771,9.476
		c-0.307-0.248-0.641-0.461-1.021-0.596L-101.51,36.418z M-54.215,80.496c-0.355,0.818-0.691,1.557-1.004,2.213l-7.609-21.586
		c-0.084-0.236-0.205-0.449-0.34-0.656c2.775-2.088,5.85-4.586,9.24-7.553l0.672,19.152c0,0.027,0.002,0.053,0.004,0.082
		C-53.135,74.246-53.291,78.373-54.215,80.496z M-54.396,48.659c-22.396,20.064-30.07,18.769-31.086,18.466L-85.605,67
		c-0.305-1.014-1.598-8.688,18.467-31.084c13.281-14.827,20.811-18.033,24.789-18.112c2.109-0.041,3.322,0.819,4.057,1.508
		l0.094,0.093c0.1,0.098,0.217,0.214,0.313,0.313l0.094,0.096c0.688,0.734,1.549,1.946,1.508,4.056
		C-36.365,27.846-39.57,35.376-54.396,48.659z"/>
	<linearGradient id="SVGID_29_" gradientUnits="userSpaceOnUse" x1="-102.6055" y1="59.834" x2="-88.0078" y2="59.834">
		<stop  offset="0" style="stop-color:#3D434F"/>
		<stop  offset="1" style="stop-color:#E5204F"/>
	</linearGradient>
	<path fill="url(#SVGID_29_)" d="M-88.252,52.771c-1.348-1.35-7.932,1.813-10.871,3.174c-0.814,0.377-1.605,1.102-1.963,1.828
		c-0.92,1.863-2.352,5.389-0.898,6.842c0.248,0.25,0.582,0.438,1.018,0.547l8.891,2.063c0,0,0.328-5.512,3.643-12.342
		C-87.904,53.791-87.898,53.125-88.252,52.771z M-94.936,62.967l-4.053-0.939c0.143-0.59,0.439-1.479,1.018-2.656
		c0.064-0.078,0.213-0.203,0.318-0.25l0.479-0.223c1.533-0.711,2.855-1.297,3.965-1.752C-94.043,59.371-94.584,61.363-94.936,62.967
		z"/>
	<linearGradient id="SVGID_30_" gradientUnits="userSpaceOnUse" x1="-86.0234" y1="76.5068" x2="-71.2422" y2="76.5068">
		<stop  offset="0" style="stop-color:#3D434F"/>
		<stop  offset="1" style="stop-color:#E5204F"/>
	</linearGradient>
	<path fill="url(#SVGID_30_)" d="M-73.682,69.635c-6.83,3.313-12.342,3.641-12.342,3.641l2.063,8.893
		c0.109,0.434,0.297,0.768,0.545,1.016c1.455,1.455,4.98,0.021,6.842-0.898c0.729-0.355,1.453-1.146,1.83-1.963
		c1.359-2.939,4.523-9.521,3.174-10.869C-71.924,69.098-72.59,69.105-73.682,69.635z M-77.697,78.373l-0.223,0.48
		c-0.049,0.104-0.172,0.252-0.25,0.318c-1.18,0.576-2.066,0.873-2.656,1.016l-0.941-4.051c1.605-0.352,3.598-0.895,5.82-1.727
		C-76.402,75.52-76.986,76.842-77.697,78.373z"/>
</g>
<g>
	<linearGradient id="SVGID_31_" gradientUnits="userSpaceOnUse" x1="21.9121" y1="39.0029" x2="61.3623" y2="39.0029">
		<stop  offset="0" style="stop-color:#3D434F"/>
		<stop  offset="1" style="stop-color:#E5204F"/>
	</linearGradient>
	<path fill="url(#SVGID_31_)" d="M41.638,68.545c7.983,0,19.725-29.945,19.725-39.36c0-10.877-8.85-19.725-19.725-19.725
		c-10.877,0-19.726,8.848-19.726,19.725C21.912,38.143,34.142,68.545,41.638,68.545z M25.839,29.185
		c0-8.711,7.087-15.798,15.799-15.798c8.711,0,15.797,7.087,15.797,15.798c0,4.524-2.529,12.991-6.445,21.573
		c-4.152,9.098-7.848,13.861-9.35,13.861c-0.732-0.051-4.251-3.434-9.104-13.885C28.53,42.113,25.839,33.451,25.839,29.185z"/>
	<linearGradient id="SVGID_32_" gradientUnits="userSpaceOnUse" x1="29.5742" y1="29.5127" x2="53.7002" y2="29.5127">
		<stop  offset="0" style="stop-color:#3D434F"/>
		<stop  offset="1" style="stop-color:#E5204F"/>
	</linearGradient>
	<path fill="url(#SVGID_32_)" d="M53.7,29.512c0-6.651-5.412-12.063-12.063-12.063c-6.652,0-12.063,5.412-12.063,12.063
		c0,6.652,5.411,12.064,12.063,12.064C48.288,41.576,53.7,36.164,53.7,29.512z M33.138,29.512c0-4.687,3.813-8.5,8.5-8.5
		c4.687,0,8.5,3.813,8.5,8.5c0,4.688-3.813,8.5-8.5,8.5C36.95,38.012,33.138,34.199,33.138,29.512z"/>
	<linearGradient id="SVGID_33_" gradientUnits="userSpaceOnUse" x1="11.2021" y1="64.1172" x2="88.2041" y2="64.1172">
		<stop  offset="0" style="stop-color:#3D434F"/>
		<stop  offset="1" style="stop-color:#E5204F"/>
	</linearGradient>
	<path fill="url(#SVGID_33_)" d="M88.099,86.631L72.901,44.293c-0.178-0.494-0.563-0.883-1.057-1.064l-10.896-3.994l-0.143,0.479
		c-0.486,1.623-1.041,3.311-1.65,5.018l-0.039,0.107l1.613,12.039l-8.127,2.584l-0.09,0.162c-0.65,1.162-1.3,2.236-1.943,3.217
		l-0.035,0.053c-0.84,1.277-1.896,2.398-2.713,3.35l-0.336,0.131v17.67l-12.154-3.85l1.742-12.176l-0.117-0.166
		c-0.729-0.695-1.452-1.543-2.207-2.52l-0.674-0.889l-2.082,15.605l-16.196,4.547l7.214-20.088l8.834-3.533l-0.275-0.473
		c-0.436-0.744-0.861-1.506-1.274-2.273l-0.198-0.369l-5.485,2.193l2.774-7.727l-0.079-0.174c-0.523-1.158-1.03-2.328-1.505-3.48
		l-0.465-1.125L11.308,86.631c-0.226,0.627-0.084,1.318,0.371,1.807C12.013,88.795,12.485,89,12.976,89
		c0.16,0,0.32-0.021,0.477-0.064l20.122-5.65l14.873,4.629c0.011,0.008,0.021,0.014,0.03,0.021c0.252,0.184,0.566,0.289,0.868,0.305
		c0.233,0.049,0.544,0.039,0.651,0.008c0.365-0.023,0.679-0.129,0.93-0.311c0.011-0.008,0.021-0.016,0.032-0.023l14.873-4.629
		l20.124,5.65c0.625,0.174,1.33-0.023,1.771-0.5C88.183,87.949,88.324,87.258,88.099,86.631z M51.485,84.043V63.539l9.727-3.098
		l2.648,19.752L51.485,84.043z M62.522,43.584l7.324,2.686l4.871,13.57l-10.393-2.799L62.522,43.584z M67.407,80.049l-2.572-19.203
		l11.341,3.053l7.431,20.697L67.407,80.049z"/>
</g>
</svg>
